<mxfile host="app.diagrams.net" modified="2022-11-10T16:27:55.367Z" agent="5.0 (Windows NT 10.0; Win64; x64) AppleWebKit/537.36 (KHTML, like Gecko) Chrome/107.0.0.0 Safari/537.36" etag="nnwMbZPImmAqZAEAJxQg" version="20.5.3" type="github">
  <diagram id="C5RBs43oDa-KdzZeNtuy" name="Page-1">
    <mxGraphModel dx="868" dy="482" grid="1" gridSize="10" guides="1" tooltips="1" connect="1" arrows="1" fold="1" page="1" pageScale="1" pageWidth="827" pageHeight="1169" math="0" shadow="0">
      <root>
        <mxCell id="WIyWlLk6GJQsqaUBKTNV-0" />
        <mxCell id="WIyWlLk6GJQsqaUBKTNV-1" parent="WIyWlLk6GJQsqaUBKTNV-0" />
        <mxCell id="LSXDcbhHK9bI5N4UTxSW-0" value="" style="rounded=0;html=1;jettySize=auto;orthogonalLoop=1;fontSize=11;endArrow=block;endFill=0;endSize=8;strokeWidth=1;shadow=0;labelBackgroundColor=none;edgeStyle=orthogonalEdgeStyle;" edge="1" parent="WIyWlLk6GJQsqaUBKTNV-1" source="LSXDcbhHK9bI5N4UTxSW-1" target="LSXDcbhHK9bI5N4UTxSW-4">
          <mxGeometry relative="1" as="geometry" />
        </mxCell>
        <mxCell id="LSXDcbhHK9bI5N4UTxSW-1" value="Carga Tabla ACDOCA" style="rounded=1;whiteSpace=wrap;html=1;fontSize=12;glass=0;strokeWidth=1;shadow=0;" vertex="1" parent="WIyWlLk6GJQsqaUBKTNV-1">
          <mxGeometry x="280" y="70" width="120" height="40" as="geometry" />
        </mxCell>
        <mxCell id="LSXDcbhHK9bI5N4UTxSW-2" value="" style="edgeStyle=orthogonalEdgeStyle;rounded=0;orthogonalLoop=1;jettySize=auto;html=1;" edge="1" parent="WIyWlLk6GJQsqaUBKTNV-1" source="LSXDcbhHK9bI5N4UTxSW-4" target="LSXDcbhHK9bI5N4UTxSW-5">
          <mxGeometry relative="1" as="geometry" />
        </mxCell>
        <mxCell id="LSXDcbhHK9bI5N4UTxSW-3" value="" style="edgeStyle=orthogonalEdgeStyle;rounded=0;orthogonalLoop=1;jettySize=auto;html=1;" edge="1" parent="WIyWlLk6GJQsqaUBKTNV-1" source="LSXDcbhHK9bI5N4UTxSW-4" target="LSXDcbhHK9bI5N4UTxSW-9">
          <mxGeometry relative="1" as="geometry" />
        </mxCell>
        <mxCell id="LSXDcbhHK9bI5N4UTxSW-4" value="FOR vFecha = vFechaInicio to vFechaFin" style="rhombus;whiteSpace=wrap;html=1;shadow=0;fontFamily=Helvetica;fontSize=12;align=center;strokeWidth=1;spacing=6;spacingTop=-4;fillColor=#dae8fc;strokeColor=#6c8ebf;" vertex="1" parent="WIyWlLk6GJQsqaUBKTNV-1">
          <mxGeometry x="170" y="170" width="340" height="80" as="geometry" />
        </mxCell>
        <mxCell id="LSXDcbhHK9bI5N4UTxSW-5" value="Fin del ciclo" style="rounded=1;whiteSpace=wrap;html=1;shadow=0;strokeWidth=1;spacing=6;spacingTop=-4;" vertex="1" parent="WIyWlLk6GJQsqaUBKTNV-1">
          <mxGeometry x="640" y="180" width="120" height="60" as="geometry" />
        </mxCell>
        <mxCell id="LSXDcbhHK9bI5N4UTxSW-6" value="No" style="text;html=1;strokeColor=none;fillColor=none;align=center;verticalAlign=middle;whiteSpace=wrap;rounded=0;" vertex="1" parent="WIyWlLk6GJQsqaUBKTNV-1">
          <mxGeometry x="520" y="330" width="60" height="30" as="geometry" />
        </mxCell>
        <mxCell id="LSXDcbhHK9bI5N4UTxSW-7" value="" style="edgeStyle=orthogonalEdgeStyle;rounded=0;orthogonalLoop=1;jettySize=auto;html=1;" edge="1" parent="WIyWlLk6GJQsqaUBKTNV-1" source="LSXDcbhHK9bI5N4UTxSW-9" target="LSXDcbhHK9bI5N4UTxSW-10">
          <mxGeometry relative="1" as="geometry" />
        </mxCell>
        <mxCell id="LSXDcbhHK9bI5N4UTxSW-8" value="" style="edgeStyle=orthogonalEdgeStyle;rounded=0;orthogonalLoop=1;jettySize=auto;html=1;" edge="1" parent="WIyWlLk6GJQsqaUBKTNV-1" source="LSXDcbhHK9bI5N4UTxSW-9" target="LSXDcbhHK9bI5N4UTxSW-12">
          <mxGeometry relative="1" as="geometry" />
        </mxCell>
        <mxCell id="LSXDcbhHK9bI5N4UTxSW-9" value="vMes &amp;gt;= 0 and vMes &amp;lt;= 12" style="rhombus;whiteSpace=wrap;html=1;shadow=0;fontFamily=Helvetica;fontSize=12;align=center;strokeWidth=1;spacing=6;spacingTop=-4;fillColor=#ffe6cc;strokeColor=#d79b00;" vertex="1" parent="WIyWlLk6GJQsqaUBKTNV-1">
          <mxGeometry x="170" y="330" width="340" height="80" as="geometry" />
        </mxCell>
        <mxCell id="LSXDcbhHK9bI5N4UTxSW-10" value="Fin del proceso" style="rounded=1;whiteSpace=wrap;html=1;shadow=0;strokeWidth=1;spacing=6;spacingTop=-4;" vertex="1" parent="WIyWlLk6GJQsqaUBKTNV-1">
          <mxGeometry x="640" y="340" width="120" height="60" as="geometry" />
        </mxCell>
        <mxCell id="LSXDcbhHK9bI5N4UTxSW-11" value="" style="edgeStyle=orthogonalEdgeStyle;rounded=0;orthogonalLoop=1;jettySize=auto;html=1;" edge="1" parent="WIyWlLk6GJQsqaUBKTNV-1" source="LSXDcbhHK9bI5N4UTxSW-12" target="LSXDcbhHK9bI5N4UTxSW-15">
          <mxGeometry relative="1" as="geometry" />
        </mxCell>
        <mxCell id="LSXDcbhHK9bI5N4UTxSW-12" value="Carga Tabla ACDOCA por mes y año" style="rounded=1;whiteSpace=wrap;html=1;shadow=0;strokeWidth=1;spacing=6;spacingTop=-4;" vertex="1" parent="WIyWlLk6GJQsqaUBKTNV-1">
          <mxGeometry x="180" y="500" width="320" height="60" as="geometry" />
        </mxCell>
        <mxCell id="LSXDcbhHK9bI5N4UTxSW-13" value="" style="edgeStyle=elbowEdgeStyle;elbow=horizontal;endArrow=classic;html=1;rounded=0;exitX=0;exitY=0.5;exitDx=0;exitDy=0;entryX=0;entryY=0.5;entryDx=0;entryDy=0;" edge="1" parent="WIyWlLk6GJQsqaUBKTNV-1" source="LSXDcbhHK9bI5N4UTxSW-12" target="LSXDcbhHK9bI5N4UTxSW-4">
          <mxGeometry width="50" height="50" relative="1" as="geometry">
            <mxPoint x="390" y="370" as="sourcePoint" />
            <mxPoint x="440" y="320" as="targetPoint" />
            <Array as="points">
              <mxPoint x="40" y="250" />
              <mxPoint x="50" y="420" />
            </Array>
          </mxGeometry>
        </mxCell>
        <mxCell id="LSXDcbhHK9bI5N4UTxSW-14" value="" style="edgeStyle=orthogonalEdgeStyle;rounded=0;orthogonalLoop=1;jettySize=auto;html=1;" edge="1" parent="WIyWlLk6GJQsqaUBKTNV-1" source="LSXDcbhHK9bI5N4UTxSW-15" target="LSXDcbhHK9bI5N4UTxSW-17">
          <mxGeometry relative="1" as="geometry" />
        </mxCell>
        <mxCell id="LSXDcbhHK9bI5N4UTxSW-15" value="Se borran la tablas &quot;ACDOCA,BSEG&quot; y &quot;BKPF&quot;" style="rounded=1;whiteSpace=wrap;html=1;shadow=0;strokeWidth=1;spacing=6;spacingTop=-4;fillColor=#fff2cc;strokeColor=#d6b656;" vertex="1" parent="WIyWlLk6GJQsqaUBKTNV-1">
          <mxGeometry x="280" y="640" width="120" height="60" as="geometry" />
        </mxCell>
        <mxCell id="LSXDcbhHK9bI5N4UTxSW-16" value="" style="edgeStyle=orthogonalEdgeStyle;rounded=0;orthogonalLoop=1;jettySize=auto;html=1;" edge="1" parent="WIyWlLk6GJQsqaUBKTNV-1" source="LSXDcbhHK9bI5N4UTxSW-17" target="LSXDcbhHK9bI5N4UTxSW-20">
          <mxGeometry relative="1" as="geometry" />
        </mxCell>
        <mxCell id="LSXDcbhHK9bI5N4UTxSW-17" value="Carga de tabla &quot;ACDOCAAGRUPADO&quot;" style="whiteSpace=wrap;html=1;rounded=1;shadow=0;strokeWidth=1;spacing=6;spacingTop=-4;" vertex="1" parent="WIyWlLk6GJQsqaUBKTNV-1">
          <mxGeometry x="190" y="780" width="300" height="60" as="geometry" />
        </mxCell>
        <mxCell id="LSXDcbhHK9bI5N4UTxSW-18" value="&lt;div style=&quot;text-align: justify;&quot;&gt;&lt;span style=&quot;background-color: initial;&quot;&gt;Después de haber cargado toda la información de la tabla Acdoca, se crea otra tabla en donde se suman los Cargos, Abonos, HSL y se agrupan por los siguientes campos:&lt;/span&gt;&lt;/div&gt;" style="text;html=1;strokeColor=none;fillColor=none;align=center;verticalAlign=middle;whiteSpace=wrap;rounded=0;" vertex="1" parent="WIyWlLk6GJQsqaUBKTNV-1">
          <mxGeometry x="510" y="795" width="280" height="30" as="geometry" />
        </mxCell>
        <mxCell id="LSXDcbhHK9bI5N4UTxSW-19" value="" style="edgeStyle=orthogonalEdgeStyle;rounded=0;orthogonalLoop=1;jettySize=auto;html=1;" edge="1" parent="WIyWlLk6GJQsqaUBKTNV-1" source="LSXDcbhHK9bI5N4UTxSW-20" target="LSXDcbhHK9bI5N4UTxSW-21">
          <mxGeometry relative="1" as="geometry" />
        </mxCell>
        <mxCell id="LSXDcbhHK9bI5N4UTxSW-20" value="Se concatenan columnas de&amp;nbsp; la tabla &quot;ACDOCAHISTORICOAGRUPADO&quot;" style="whiteSpace=wrap;html=1;rounded=1;shadow=0;strokeWidth=1;spacing=6;spacingTop=-4;" vertex="1" parent="WIyWlLk6GJQsqaUBKTNV-1">
          <mxGeometry x="190" y="920" width="300" height="60" as="geometry" />
        </mxCell>
        <mxCell id="LSXDcbhHK9bI5N4UTxSW-21" value="Se borra la tabla &quot;ACDOCAAGRUPADO&quot;" style="rounded=1;whiteSpace=wrap;html=1;shadow=0;strokeWidth=1;spacing=6;spacingTop=-4;" vertex="1" parent="WIyWlLk6GJQsqaUBKTNV-1">
          <mxGeometry x="265" y="1060" width="150" height="60" as="geometry" />
        </mxCell>
        <mxCell id="LSXDcbhHK9bI5N4UTxSW-22" value="&lt;div style=&quot;text-align: justify;&quot;&gt;&lt;span style=&quot;background-color: initial;&quot;&gt;Antes de borrar la tablas, se crean el archivo SAP_ACDOCA_vAniovMes.qvd&lt;/span&gt;&lt;/div&gt;" style="text;html=1;strokeColor=none;fillColor=none;align=center;verticalAlign=middle;whiteSpace=wrap;rounded=0;" vertex="1" parent="WIyWlLk6GJQsqaUBKTNV-1">
          <mxGeometry x="510" y="655" width="220" height="30" as="geometry" />
        </mxCell>
        <mxCell id="LSXDcbhHK9bI5N4UTxSW-23" value="&lt;div style=&quot;text-align: justify;&quot;&gt;&lt;span style=&quot;background-color: initial;&quot;&gt;Antes de borrar la tabla, secrea el archivo ACDOCAAGRUPADOPERIODOACTUAL.qvd&lt;/span&gt;&lt;/div&gt;" style="text;html=1;strokeColor=none;fillColor=none;align=center;verticalAlign=middle;whiteSpace=wrap;rounded=0;" vertex="1" parent="WIyWlLk6GJQsqaUBKTNV-1">
          <mxGeometry x="510" y="1090" width="340" height="30" as="geometry" />
        </mxCell>
        <mxCell id="LSXDcbhHK9bI5N4UTxSW-24" value="Yes" style="text;html=1;strokeColor=none;fillColor=none;align=center;verticalAlign=middle;whiteSpace=wrap;rounded=0;" vertex="1" parent="WIyWlLk6GJQsqaUBKTNV-1">
          <mxGeometry x="340" y="440" width="60" height="30" as="geometry" />
        </mxCell>
        <mxCell id="LSXDcbhHK9bI5N4UTxSW-25" value="Primero se carga toda la información de la tabla Acdoca" style="text;html=1;strokeColor=none;fillColor=none;align=center;verticalAlign=middle;whiteSpace=wrap;rounded=0;" vertex="1" parent="WIyWlLk6GJQsqaUBKTNV-1">
          <mxGeometry x="510" y="515" width="310" height="30" as="geometry" />
        </mxCell>
        <mxCell id="LSXDcbhHK9bI5N4UTxSW-26" value="FISCAL_YEAR,&#xa;ACCOUNTING_PERIOD,&#xa;ORIGEN,&#xa;CEBE&amp;&#39;-&#39;&amp;if(isnull(Evaluate(CECO)),BUSINESS_UNIT&amp;num(CEBE),CECO),  &#xa;BUSINESS_UNIT,			&#xa;COMPAÑIA,&#xa;ACCOUNT,				&#xa;ProvoClienteICIA,&#xa;DESCR_LARGA_CUENTA,&#xa;CEBE, 					&#xa;DESCR_CEBE,&#xa;if(isnull(Evaluate(CECO)),BUSINESS_UNIT&amp;num(CEBE),CECO), 					//CeCo	&#xa;DESCR_CECO,&#xa;PRODUCT,&#xa;DESCR_PROD" style="text;whiteSpace=wrap;html=1;" vertex="1" parent="WIyWlLk6GJQsqaUBKTNV-1">
          <mxGeometry x="510" y="840" width="450" height="240" as="geometry" />
        </mxCell>
      </root>
    </mxGraphModel>
  </diagram>
</mxfile>
